<svg width="24" height="24" viewBox="0 0 24 24" fill="none" xmlns="http://www.w3.org/2000/svg">
<path d="M12.5951 20.1636L20.0891 12.5988C21.0613 11.6065 21.6041 10.2716 21.6003 8.88246C21.5965 7.49329 21.0464 6.16137 20.0687 5.17444C19.5891 4.68523 19.0171 4.29627 18.3858 4.03019C17.7545 3.76411 17.0766 3.62622 16.3915 3.62455C15.7064 3.62287 15.0278 3.75745 14.3953 4.02043C13.7627 4.28342 13.1887 4.66958 12.7067 5.15644L11.9915 5.88004L11.2655 5.14804C10.7866 4.65947 10.2153 4.27101 9.58488 4.00523C8.95446 3.73945 8.27749 3.60166 7.59334 3.59987C6.90919 3.59808 6.23151 3.73234 5.59971 3.99482C4.96791 4.25731 4.3946 4.64278 3.91312 5.12884C1.88752 7.17484 1.89712 10.5 3.93232 12.5556L11.4647 20.1636C11.7767 20.4792 12.2831 20.4792 12.5951 20.1636ZM13.5599 6.00004C13.9304 5.62609 14.3715 5.32961 14.8577 5.12786C15.3439 4.92611 15.8654 4.82312 16.3917 4.82491C16.9181 4.8267 17.4389 4.93322 17.9237 5.13826C18.4085 5.34331 18.8476 5.64278 19.2155 6.01924C19.9706 6.78165 20.3958 7.81028 20.3994 8.88331C20.4029 9.95633 19.9847 10.9878 19.2347 11.7552V11.7576L12.0299 19.0296L4.78432 11.7108C3.20872 10.1196 3.20752 7.54684 4.76632 5.97244C5.1363 5.59918 5.57684 5.30326 6.06229 5.10189C6.54774 4.90053 7.06839 4.79775 7.59394 4.79954C8.11949 4.80132 8.63944 4.90764 9.1235 5.1123C9.60757 5.31696 10.0461 5.61587 10.4135 5.99164L11.5655 7.15564C11.6213 7.21205 11.6878 7.25684 11.761 7.28741C11.8342 7.31798 11.9128 7.33372 11.9921 7.33372C12.0715 7.33372 12.15 7.31798 12.2233 7.28741C12.2965 7.25684 12.3629 7.21205 12.4187 7.15564L13.5599 6.00004Z" fill="white"/>
</svg>
