<svg width="24" height="24" viewBox="0 0 24 24" fill="none" xmlns="http://www.w3.org/2000/svg">
<path d="M11.2655 5.14777C10.7865 4.65936 10.2152 4.27102 9.58478 4.00533C8.95437 3.73964 8.27744 3.6019 7.59334 3.60012C6.90923 3.59833 6.23159 3.73253 5.5998 3.99492C4.96802 4.25732 4.39468 4.64266 3.91312 5.12857C1.88752 7.17457 1.89712 10.4998 3.93232 12.5554L11.4647 20.1634C11.7767 20.479 12.2831 20.479 12.5951 20.1634L20.0891 12.5986C21.0613 11.6063 21.6041 10.2714 21.6003 8.88219C21.5965 7.49302 21.0464 6.16111 20.0687 5.17417C19.5892 4.68482 19.0172 4.29573 18.3859 4.02956C17.7546 3.76339 17.0766 3.62545 16.3915 3.62377C15.7064 3.6221 15.0278 3.75672 14.3952 4.0198C13.7626 4.28288 13.1886 4.66917 12.7067 5.15617L11.9915 5.87977L11.2655 5.14777Z" fill="white"/>
</svg>
